<?xml version="1.0" encoding="iso-8859-1"?>
<!-- Generator: Adobe Illustrator 18.0.0, SVG Export Plug-In . SVG Version: 6.00 Build 0)  -->
<!DOCTYPE svg PUBLIC "-//W3C//DTD SVG 1.1//EN" "http://www.w3.org/Graphics/SVG/1.1/DTD/svg11.dtd">
<svg version="1.1" id="Capa_1" xmlns="http://www.w3.org/2000/svg" xmlns:xlink="http://www.w3.org/1999/xlink" x="0px" y="0px"
	 viewBox="0 0 490 490" style="enable-background:new 0 0 490 490;" xml:space="preserve">
<g>
	<g>
		<path d="M331.192,246.113c0,7.132-5.773,12.913-12.904,12.913c-7.127,0-12.907-5.781-12.907-12.913
			c0-7.126,5.78-12.909,12.907-12.909C325.419,233.204,331.192,238.987,331.192,246.113z"/>
		<path d="M184.625,246.113c0,7.132-5.777,12.913-12.908,12.913c-7.13,0-12.909-5.781-12.909-12.913
			c0-7.126,5.779-12.909,12.909-12.909C178.848,233.204,184.625,238.987,184.625,246.113z"/>
	</g>
	<path d="M462.328,192.738c-5.741-48.571-27.445-93.519-62.559-128.633C358.43,22.767,303.468,0,245.004,0
		C186.538,0,131.575,22.767,90.233,64.105C55.12,99.219,33.415,144.165,27.672,192.734c-8.845,4.804-14.85,14.176-14.85,24.948
		v44.377c0,15.661,12.695,28.364,28.363,28.364c15.663,0,28.368-12.703,28.368-28.364v-44.377c0-9.421-4.599-17.767-11.669-22.926
		c11.877-92.677,91.264-164.536,187.12-164.536c95.851,0,175.232,71.858,187.11,164.533c-7.071,5.159-11.669,13.506-11.669,22.929
		v44.377c0,15.661,12.698,28.364,28.364,28.364c15.662,0,28.368-12.703,28.368-28.364v-44.377
		C477.178,206.913,471.173,197.543,462.328,192.738z"/>
	<path d="M405.329,365.728c0,0,0.085-150.597,0.085-152.27c0-88.449-71.963-160.409-160.419-160.409
		c-88.447,0-160.408,71.96-160.408,160.409c0,0.068,0,83.646,0,152.334C45.964,393.525,20.801,438.821,20.801,490H469.2
		C469.2,438.783,444.002,393.456,405.329,365.728z M245.004,132.463c14.567,39.368,48.822,82.364,128.619,87.423
		c-1.278,25.855-10.223,49.725-24.595,69.389c-9.87,3.731-20.395,5.678-31.077,5.678h-45.164c-3.172-4.502-8.398-7.451-14.321-7.451
		h-24.639c-9.682,0-17.529,7.847-17.529,17.527c0,9.677,7.848,17.524,17.529,17.524h24.639c5.923,0,11.149-2.951,14.321-7.452
		h45.164c2.1,0,4.19-0.074,6.276-0.195c-21.863,17.114-49.375,27.33-79.232,27.33c-68.849,0-125.25-54.315-128.611-122.35
		C196.184,214.827,230.439,171.831,245.004,132.463z M244.46,420.522c-34.064,0-61.906-26.607-63.903-60.174
		c19.731,8.691,41.53,13.523,64.438,13.523c22.485,0,43.898-4.658,63.338-13.049C306.102,394.163,278.368,420.522,244.46,420.522z"
		/>
</g>
<g>
</g>
<g>
</g>
<g>
</g>
<g>
</g>
<g>
</g>
<g>
</g>
<g>
</g>
<g>
</g>
<g>
</g>
<g>
</g>
<g>
</g>
<g>
</g>
<g>
</g>
<g>
</g>
<g>
</g>
</svg>
